<svg xmlns="http://www.w3.org/2000/svg" fill="none" viewBox="0 0 24 24" stroke-width="1.5" stroke="currentColor">
  <path stroke-linecap="round" stroke-linejoin="round" d="M11.48 3.499a.562.562 0 011.04 0l2.125 5.111a.563.563 0 00.475.345l5.518.442c.545.044.757.74.34 1.118l-4.135 3.682a.563.563 0 00-.182.557l1.285 5.385a.562.562 0 01-.84.61l-4.725-2.885a.563.563 0 00-.586 0L6.982 20.54a.562.562 0 01-.84-.61l1.285-5.386a.562.562 0 00-.182-.557l-4.135-3.682a.562.562 0 01.34-1.118l5.518-.442a.563.563 0 00.475-.345L11.48 3.5z" />
</svg>
